<svg width="16" height="16" viewBox="0 0 16 16" fill="none" xmlns="http://www.w3.org/2000/svg">
<g clip-path="url(#clip0_777_30942)">
<path d="M7.99992 14.6666C11.6818 14.6666 14.6666 11.6818 14.6666 7.99992C14.6666 4.31802 11.6818 1.33325 7.99992 1.33325C4.31802 1.33325 1.33325 4.31802 1.33325 7.99992C1.33325 8.90382 1.51314 9.76572 1.83908 10.5517C2.00736 10.9576 2.21457 11.3432 2.45606 11.7039C2.53711 11.825 2.38506 12.5903 1.99992 13.9999C3.40955 13.6148 4.17489 13.4627 4.29595 13.5438C4.65668 13.7853 5.04229 13.9925 5.44812 14.1608C6.23412 14.4867 7.09602 14.6666 7.99992 14.6666Z" stroke="#4D5868" stroke-width="1.33" stroke-linejoin="round"/>
<path d="M8 6V10M6 8H10" stroke="#4D5868" stroke-width="1.33" stroke-linecap="round" stroke-linejoin="round"/>
</g>
<defs>
<clipPath id="clip0_777_30942">
<rect width="16" height="16" fill="white"/>
</clipPath>
</defs>
</svg>
