<svg width="61" height="22" viewBox="0 0 61 22" fill="none" xmlns="http://www.w3.org/2000/svg">
<g clip-path="url(#clip0_777_30949)">
<path d="M12 13.6666C13.4728 13.6666 14.6667 12.4727 14.6667 10.9999C14.6667 9.52715 13.4728 8.33325 12 8.33325" stroke="#4D5868" stroke-width="1.33333" stroke-linejoin="round"/>
<path d="M3.99992 8.33325C2.52716 8.33325 1.33325 9.52715 1.33325 10.9999C1.33325 12.4727 2.52716 13.6666 3.99992 13.6666" stroke="#4D5868" stroke-width="1.33333" stroke-linejoin="round"/>
<path d="M4 13.6666V13.4999V12.6666V10.9999V8.33325C4 6.12411 5.79087 4.33325 8 4.33325C10.2091 4.33325 12 6.12411 12 8.33325V13.6666C12 15.8757 10.2091 17.6666 8 17.6666" stroke="#4D5868" stroke-width="1.33333" stroke-linecap="round" stroke-linejoin="round"/>
</g>
<path d="M25.376 5.808C26.86 5.808 28.05 6.298 28.918 7.306C29.73 8.258 30.15 9.49 30.15 11.016C30.15 12.528 29.73 13.746 28.918 14.698C28.05 15.692 26.86 16.196 25.362 16.196C23.864 16.196 22.688 15.692 21.82 14.698C20.994 13.746 20.588 12.514 20.588 11.016C20.588 9.504 20.994 8.272 21.82 7.32C22.688 6.312 23.864 5.808 25.376 5.808ZM25.376 6.83C24.228 6.83 23.318 7.222 22.66 8.02C22.044 8.776 21.736 9.77 21.736 11.016C21.736 12.248 22.044 13.242 22.66 13.998C23.304 14.782 24.214 15.174 25.362 15.174C26.51 15.174 27.42 14.782 28.064 14.026C28.68 13.27 29.002 12.276 29.002 11.016C29.002 9.742 28.68 8.734 28.064 7.978C27.42 7.208 26.524 6.83 25.376 6.83ZM35.0304 8.566C36.8224 8.566 37.7324 9.56 37.7324 11.548V16H36.6124V11.632C36.6124 10.218 35.9684 9.518 34.7084 9.518C34.2044 9.518 33.7704 9.7 33.4064 10.064C33.0144 10.456 32.8044 10.974 32.7624 11.632V16H31.6424V8.762H32.7624V9.826C33.0144 9.42 33.3364 9.112 33.7284 8.902C34.1204 8.678 34.5544 8.566 35.0304 8.566ZM42.6267 8.566C43.5227 8.566 44.2367 8.776 44.7827 9.196C45.3427 9.63 45.6787 10.288 45.8047 11.17H44.6987C44.6007 10.61 44.3767 10.19 44.0267 9.91C43.6627 9.63 43.2007 9.504 42.6267 9.504C41.9267 9.504 41.3667 9.77 40.9607 10.302C40.5687 10.82 40.3727 11.52 40.3727 12.402C40.3727 13.284 40.5547 13.984 40.9467 14.488C41.3247 14.992 41.8847 15.258 42.6127 15.258C43.8447 15.258 44.5587 14.628 44.7267 13.382H45.8467C45.6787 14.306 45.3287 15.02 44.7687 15.496C44.2227 15.958 43.5087 16.196 42.6127 16.196C41.5207 16.196 40.6807 15.832 40.0787 15.104C39.5047 14.418 39.2247 13.522 39.2247 12.416C39.2247 11.31 39.5047 10.414 40.0787 9.714C40.6947 8.944 41.5487 8.566 42.6267 8.566ZM50.353 8.566C51.389 8.566 52.145 8.832 52.649 9.378C53.069 9.854 53.293 10.512 53.293 11.352V16H52.243V14.782C51.963 15.174 51.585 15.496 51.137 15.748C50.605 16.042 50.003 16.196 49.331 16.196C48.603 16.196 48.029 16.014 47.595 15.65C47.147 15.272 46.923 14.782 46.923 14.194C46.923 13.368 47.245 12.752 47.917 12.332C48.505 11.94 49.345 11.73 50.437 11.716L52.173 11.688V11.31C52.173 10.092 51.543 9.49 50.283 9.49C49.751 9.49 49.317 9.588 48.981 9.812C48.603 10.036 48.365 10.386 48.253 10.848L47.147 10.764C47.301 10.008 47.679 9.434 48.267 9.07C48.799 8.734 49.485 8.566 50.353 8.566ZM52.173 12.528L50.507 12.556C48.883 12.584 48.071 13.116 48.071 14.166C48.071 14.502 48.197 14.768 48.477 14.992C48.757 15.202 49.121 15.314 49.569 15.314C50.255 15.314 50.857 15.09 51.389 14.642C51.907 14.208 52.173 13.704 52.173 13.144V12.528ZM55.2893 5.808H56.3953V16H55.2893V5.808ZM58.6262 5.808H59.7322V16H58.6262V5.808Z" fill="#4D5868"/>
<defs>
<clipPath id="clip0_777_30949">
<rect width="16" height="16" fill="white" transform="translate(0 3)"/>
</clipPath>
</defs>
</svg>
