<svg width="20" height="20" viewBox="0 0 20 20" fill="none" xmlns="http://www.w3.org/2000/svg">
<path d="M18.4319 4.33339L15.4967 16.0746C15.3306 16.771 14.9328 17.3902 14.3686 17.8309C13.8044 18.2715 13.1073 18.5074 12.3914 18.4998H12.3735C11.6529 18.5039 10.9526 18.261 10.3893 17.8116C9.8259 17.3622 9.43344 16.7334 9.27722 16.0299L8.50762 12.7634L13.3221 7.94883C13.4055 7.86539 13.4717 7.76633 13.5169 7.65731C13.562 7.54829 13.5853 7.43144 13.5853 7.31344C13.5853 7.19544 13.562 7.07859 13.5169 6.96957C13.4717 6.86055 13.4055 6.76149 13.3221 6.67805C13.2387 6.59461 13.1396 6.52842 13.0306 6.48327C12.9216 6.43811 12.8047 6.41487 12.6867 6.41487C12.5687 6.41487 12.4519 6.43811 12.3429 6.48327C12.2339 6.52842 12.1348 6.59461 12.0514 6.67805L7.23688 11.4927L3.97055 10.723C3.27156 10.5595 2.64787 10.1657 2.19978 9.60483C1.75169 9.04398 1.50525 8.34871 1.50008 7.63085C1.49492 6.91298 1.73133 6.21424 2.17131 5.647C2.61128 5.07975 3.22924 4.67696 3.92581 4.50342L15.6667 1.56811C16.0487 1.47258 16.4489 1.47762 16.8284 1.58272C17.2079 1.68783 17.5537 1.88942 17.8322 2.16786C18.1106 2.44631 18.3122 2.79212 18.4173 3.17162C18.5224 3.55112 18.5274 3.95136 18.4319 4.33339Z" fill="#C7CCD6"/>
</svg>
