<svg width="20" height="20" viewBox="0 0 20 20" fill="none" xmlns="http://www.w3.org/2000/svg">
<path fill-rule="evenodd" clip-rule="evenodd" d="M15.1982 3C15.6375 2.99999 16.017 2.99989 16.3291 3.02539C16.6584 3.05231 16.9857 3.11199 17.3008 3.27246C17.7707 3.51191 18.1546 3.89436 18.3945 4.36524C18.5549 4.68024 18.6138 5.008 18.6406 5.33692C18.6661 5.64857 18.666 6.02676 18.666 6.46484V12.8682C18.666 13.3066 18.6661 13.6854 18.6406 13.9971C18.6137 14.3258 18.5548 14.653 18.3945 14.9678C18.155 15.4379 17.7721 15.8208 17.3018 16.0605C16.9868 16.2211 16.6591 16.2807 16.3301 16.3076C16.0184 16.3331 15.6396 16.333 15.2012 16.333H7.93555C7.556 16.333 7.48068 16.3376 7.417 16.3506C7.343 16.3658 7.27154 16.3909 7.20508 16.4248C7.14788 16.4541 7.08761 16.4973 6.79493 16.7314L5.49122 17.7744C5.16937 18.0319 4.88436 18.2601 4.64258 18.4199C4.40648 18.576 4.07178 18.7662 3.66798 18.7666C3.16054 18.7671 2.68084 18.536 2.36426 18.1396C2.11238 17.8241 2.051 17.444 2.0254 17.1621C1.9992 16.8736 1.99998 16.5087 2.00001 16.0967V6.46777C1.99999 6.02877 1.99993 5.64997 2.0254 5.33789C2.0523 5.00849 2.11186 4.68054 2.27247 4.36524C2.51212 3.8949 2.89395 3.51215 3.36426 3.27246C3.67955 3.11182 4.00753 3.05231 4.33692 3.02539C4.64914 2.99989 5.02847 2.99999 5.46778 3H15.1982ZM5.50001 4.66699C5.01955 4.66699 4.70888 4.66723 4.47266 4.68652C4.24626 4.70503 4.16224 4.73685 4.1211 4.75781C3.96445 4.83768 3.83671 4.96444 3.75684 5.12109C3.73587 5.16225 3.70503 5.24709 3.68653 5.47363C3.66727 5.70977 3.66602 6.01994 3.66602 6.5V16.0596C3.66602 16.5201 3.66705 16.808 3.68555 17.0117C3.68683 17.0258 3.68812 17.0388 3.68946 17.0508C3.69969 17.0443 3.7108 17.0371 3.72266 17.0293C3.89341 16.9164 4.11882 16.737 4.47852 16.4492L5.7461 15.4365L5.75196 15.4307C5.76708 15.4186 5.782 15.4065 5.79688 15.3945C6.02059 15.2153 6.21968 15.0567 6.44727 14.9404C6.64823 14.8378 6.86188 14.763 7.08204 14.7178C7.33277 14.6664 7.58747 14.6668 7.87598 14.667H15.169C15.6485 14.667 15.9587 14.6658 16.1943 14.6465C16.42 14.628 16.5039 14.5971 16.5449 14.5762C16.7015 14.4964 16.8292 14.3687 16.9092 14.2119C16.9301 14.1708 16.961 14.0869 16.9795 13.8613C16.9988 13.6257 17 13.3155 17 12.8359V6.49707C17 6.0179 16.9987 5.70835 16.9795 5.47266C16.961 5.24656 16.9301 5.16211 16.9092 5.12109C16.8296 4.96501 16.7019 4.83792 16.5449 4.75781C16.5037 4.73681 16.4195 4.70502 16.1934 4.68652C15.9574 4.66724 15.6472 4.66699 15.167 4.66699H5.50001ZM12.2441 7.41113C12.5696 7.0857 13.0964 7.0857 13.4219 7.41113C13.7473 7.73657 13.7473 8.26343 13.4219 8.58887L10.0889 11.9229C9.76342 12.2481 9.23554 12.2482 8.91016 11.9229L7.24415 10.2559C6.91871 9.93042 6.91871 9.40259 7.24415 9.07715C7.5695 8.75214 8.09653 8.75215 8.42188 9.07715L9.50001 10.1553L12.2441 7.41113Z" fill="#3F3F51"/>
</svg>
