<svg width="28" height="28" viewBox="0 0 28 28" fill="none" xmlns="http://www.w3.org/2000/svg">
<path d="M23.296 5.36621L14 10.7464L19.5286 13.9454L26.124 10.1318V6.98181L23.296 5.36621Z" fill="#8491FF"/>
<path d="M26.1156 21.0049L26.1254 21L26.1156 21.0049Z" fill="#196BCE"/>
<path d="M20.5982 13.3266L20.5996 17.808L26.124 21V10.1318L20.5982 13.3266Z" fill="#5364FF"/>
<path d="M20.5996 17.808L8.4742 24.8094L14 28L26.124 21L20.5996 17.808Z" fill="#3F4CC2"/>
<path d="M19.5426 3.2004L14 0L1.876 7L7.4018 10.1906L19.5426 3.2004Z" fill="#8491FF"/>
<path d="M7.4018 10.1906L1.876 7V21L4.6018 22.5736L7.4018 20.9426V10.1906Z" fill="#5364FF"/>
<path d="M14 17.1402L8.4714 13.9454L7.4018 14.5516V20.9426L14 17.1402Z" fill="#3F4CC2"/>
</svg>
