<svg width="16" height="16" viewBox="0 0 16 16" fill="none" xmlns="http://www.w3.org/2000/svg">
<path fill-rule="evenodd" clip-rule="evenodd" d="M2.00016 1.33301C1.63197 1.33301 1.3335 1.63148 1.3335 1.99967V4.99967C1.3335 5.18377 1.48273 5.33301 1.66683 5.33301H2.3335C2.51759 5.33301 2.66683 5.18377 2.66683 4.99967V2.66634H5.00016C5.18426 2.66634 5.3335 2.5171 5.3335 2.33301V1.66634C5.3335 1.48225 5.18426 1.33301 5.00016 1.33301H2.00016ZM14.0002 14.6663C14.3684 14.6663 14.6668 14.3679 14.6668 13.9997V10.9997C14.6668 10.8156 14.5176 10.6663 14.3335 10.6663H13.6668C13.4827 10.6663 13.3335 10.8156 13.3335 10.9997V13.333H11.0002C10.8161 13.333 10.6668 13.4822 10.6668 13.6663V14.333C10.6668 14.5171 10.8161 14.6663 11.0002 14.6663H14.0002ZM1.3335 13.9997C1.3335 14.3679 1.63197 14.6663 2.00016 14.6663H5.00016C5.18426 14.6663 5.3335 14.5171 5.3335 14.333V13.6663C5.3335 13.4822 5.18426 13.333 5.00016 13.333H2.66683V10.9997C2.66683 10.8156 2.51759 10.6663 2.3335 10.6663H1.66683C1.48273 10.6663 1.3335 10.8156 1.3335 10.9997V13.9997ZM14.6668 1.99967C14.6668 1.63148 14.3684 1.33301 14.0002 1.33301H11.0002C10.8161 1.33301 10.6668 1.48225 10.6668 1.66634V2.33301C10.6668 2.5171 10.8161 2.66634 11.0002 2.66634H13.3335V4.99967C13.3335 5.18377 13.4827 5.33301 13.6668 5.33301H14.3335C14.5176 5.33301 14.6668 5.18377 14.6668 4.99967V1.99967ZM5.3335 9.66634V6.33301H10.6668V9.66634H5.3335ZM4.00016 5.66634C4.00016 5.29815 4.29864 4.99967 4.66683 4.99967H11.3335C11.7017 4.99967 12.0002 5.29815 12.0002 5.66634V10.333C12.0002 10.7012 11.7017 10.9997 11.3335 10.9997H4.66683C4.29864 10.9997 4.00016 10.7012 4.00016 10.333V5.66634Z" fill="#88929E"/>
</svg>
