<svg width="16" height="16" viewBox="0 0 16 16" fill="none" xmlns="http://www.w3.org/2000/svg">
<path d="M14.4963 7.37753C14.442 7.34848 14.3881 7.33301 14.2395 7.33301H1.76081C1.61222 7.33301 1.55834 7.34848 1.50402 7.37753C1.4497 7.40658 1.40707 7.44921 1.37802 7.50353C1.34897 7.55785 1.3335 7.61174 1.3335 7.76032V8.23903C1.3335 8.38761 1.34897 8.44149 1.37802 8.49582C1.40707 8.55014 1.4497 8.59277 1.50402 8.62182C1.55834 8.65087 1.61222 8.66634 1.76081 8.66634H14.2395C14.3881 8.66634 14.442 8.65087 14.4963 8.62182C14.5506 8.59277 14.5933 8.55014 14.6223 8.49582C14.6514 8.44149 14.6668 8.38761 14.6668 8.23903V7.76032C14.6668 7.61174 14.6514 7.55785 14.6223 7.50353C14.5933 7.44921 14.5506 7.40658 14.4963 7.37753Z" fill="#88929E"/>
</svg>
