<svg width="16" height="16" viewBox="0 0 16 16" fill="none" xmlns="http://www.w3.org/2000/svg">
<path fill-rule="evenodd" clip-rule="evenodd" d="M1.3335 1.99967C1.3335 1.63148 1.63197 1.33301 2.00016 1.33301H5.00016C5.18426 1.33301 5.3335 1.48225 5.3335 1.66634V2.33301C5.3335 2.5171 5.18426 2.66634 5.00016 2.66634H2.66683V4.99967C2.66683 5.18377 2.51759 5.33301 2.3335 5.33301H1.66683C1.48273 5.33301 1.3335 5.18377 1.3335 4.99967V1.99967ZM14.6668 13.9997C14.6668 14.3679 14.3684 14.6663 14.0002 14.6663H11.0002C10.8161 14.6663 10.6668 14.5171 10.6668 14.333V13.6663C10.6668 13.4822 10.8161 13.333 11.0002 13.333H13.3335V10.9997C13.3335 10.8156 13.4827 10.6663 13.6668 10.6663H14.3335C14.5176 10.6663 14.6668 10.8156 14.6668 10.9997V13.9997ZM2.00016 14.6663C1.63197 14.6663 1.3335 14.3679 1.3335 13.9997V10.9997C1.3335 10.8156 1.48273 10.6663 1.66683 10.6663H2.3335C2.51759 10.6663 2.66683 10.8156 2.66683 10.9997V13.333H5.00016C5.18426 13.333 5.3335 13.4822 5.3335 13.6663V14.333C5.3335 14.5171 5.18426 14.6663 5.00016 14.6663H2.00016ZM14.0002 1.33301C14.3684 1.33301 14.6668 1.63148 14.6668 1.99967V4.99967C14.6668 5.18377 14.5176 5.33301 14.3335 5.33301H13.6668C13.4827 5.33301 13.3335 5.18377 13.3335 4.99967V2.66634H11.0002C10.8161 2.66634 10.6668 2.5171 10.6668 2.33301V1.66634C10.6668 1.48225 10.8161 1.33301 11.0002 1.33301H14.0002Z" fill="#88929E"/>
</svg>
