<svg width="16" height="16" viewBox="0 0 16 16" fill="none" xmlns="http://www.w3.org/2000/svg">
<path fill-rule="evenodd" clip-rule="evenodd" d="M8.23951 1.33301C8.3881 1.33301 8.44198 1.34848 8.4963 1.37753C8.55062 1.40658 8.59326 1.44921 8.62231 1.50353C8.65136 1.55785 8.66683 1.61174 8.66683 1.76032V7.33301H14.2395C14.3881 7.33301 14.442 7.34848 14.4963 7.37753C14.5506 7.40658 14.5933 7.44921 14.6223 7.50353C14.6514 7.55785 14.6668 7.61174 14.6668 7.76032V8.23903C14.6668 8.38761 14.6514 8.44149 14.6223 8.49581C14.5933 8.55014 14.5506 8.59277 14.4963 8.62182C14.442 8.65087 14.3881 8.66634 14.2395 8.66634H8.6665L8.66683 14.239C8.66683 14.3876 8.65136 14.4415 8.62231 14.4958C8.59326 14.5501 8.55062 14.5928 8.4963 14.6218C8.44198 14.6509 8.3881 14.6663 8.23951 14.6663H7.76081C7.61222 14.6663 7.55834 14.6509 7.50402 14.6218C7.4497 14.5928 7.40707 14.5501 7.37802 14.4958C7.34897 14.4415 7.3335 14.3876 7.3335 14.239L7.33316 8.66601L1.76081 8.66634C1.61222 8.66634 1.55834 8.65087 1.50402 8.62182C1.4497 8.59277 1.40707 8.55014 1.37802 8.49581C1.34897 8.44149 1.3335 8.38761 1.3335 8.23903V7.76032C1.3335 7.61174 1.34897 7.55785 1.37802 7.50353C1.40707 7.44921 1.4497 7.40658 1.50402 7.37753C1.55834 7.34848 1.61222 7.33301 1.76081 7.33301L7.3335 7.33267V1.76032C7.3335 1.61174 7.34897 1.55785 7.37802 1.50353C7.40707 1.44921 7.4497 1.40658 7.50402 1.37753C7.55834 1.34848 7.61222 1.33301 7.76081 1.33301L8.23951 1.33301Z" fill="#88929E"/>
</svg>
