<svg width="36" height="36" viewBox="0 0 36 36" fill="none" xmlns="http://www.w3.org/2000/svg">
<path d="M18 1C27.3888 1 35 8.61116 35 18C35 27.3888 27.3888 35 18 35H3C1.89543 35 1 34.1046 1 33V18C1 8.61116 8.61117 1.00002 18 1ZM10.5 24C9.67157 24 9 24.6716 9 25.5C9 26.3284 9.67157 27 10.5 27H18C18.8284 27 19.5 26.3284 19.5 25.5C19.5 24.6716 18.8284 24 18 24H10.5ZM10.5 18C9.67157 18 9 18.6716 9 19.5C9 20.3284 9.67157 21 10.5 21H24C24.8284 21 25.5 20.3284 25.5 19.5C25.5 18.6716 24.8284 18 24 18H10.5ZM10.5 12C9.67157 12 9 12.6716 9 13.5C9 14.3284 9.67157 15 10.5 15H24C24.8284 15 25.5 14.3284 25.5 13.5C25.5 12.6716 24.8284 12 24 12H10.5Z" fill="#3A3F43"/>
</svg>
