<svg width="36" height="36" viewBox="0 0 36 36" fill="none" xmlns="http://www.w3.org/2000/svg">
<path d="M12.7475 4.26465C13.8372 4.26483 14.8406 4.85596 15.3696 5.80859L17.2045 9.11328C17.6847 9.97852 17.7076 11.0258 17.2651 11.9111L15.7504 14.9375C15.819 15.1572 15.9192 15.4435 16.059 15.7705C16.4032 16.5756 16.9725 17.5921 17.8725 18.4922C18.7723 19.392 19.7864 19.959 20.5883 20.3008C20.9132 20.4392 21.198 20.5367 21.4164 20.6045L24.4438 19.0918C25.3298 18.6487 26.3779 18.6712 27.2436 19.1523L30.558 20.9951C31.5097 21.5243 32.101 22.5279 32.101 23.6172V27.4219C32.101 30.2973 29.3754 32.5358 26.4848 31.5605V31.5615C22.6825 30.2785 16.5402 27.7674 12.5688 23.7959C8.59717 19.8243 6.08611 13.6821 4.80315 9.87988C3.82796 6.98951 6.06673 4.26509 8.94182 4.26465H12.7475ZM21.8705 20.7285L21.8686 20.7275H21.8666C21.8688 20.728 21.8703 20.7285 21.8705 20.7285Z" fill="#3A3F43"/>
</svg>
