<svg width="36" height="36" viewBox="0 0 36 36" fill="none" xmlns="http://www.w3.org/2000/svg">
<path d="M25.5 4.5C27.1569 4.5 28.5 5.84316 28.5 7.5V11.25L32.0996 8.55078C32.5541 8.20989 33.1627 8.15412 33.6709 8.4082C34.1791 8.66229 34.5 9.18184 34.5 9.75V27C34.5 27.5682 34.1791 28.0877 33.6709 28.3418C33.1627 28.5959 32.5541 28.541 32.0996 28.2002L28.5 25.499V28.5C28.5 30.1569 27.1569 31.5 25.5 31.5H4.5C2.84316 31.5 1.5 30.1569 1.5 28.5V7.5C1.5 5.84315 2.84315 4.5 4.5 4.5H25.5ZM9.75 9.75C8.09315 9.75 6.75 11.0931 6.75 12.75C6.75 14.4069 8.09315 15.75 9.75 15.75C11.4069 15.75 12.75 14.4069 12.75 12.75C12.75 11.0931 11.4069 9.75 9.75 9.75Z" fill="#3A3F43"/>
</svg>
