<svg width="16" height="16" viewBox="0 0 16 16" fill="none" xmlns="http://www.w3.org/2000/svg">
<g clip-path="url(#clip0_711_23624)">
<path d="M8 0.666992C12.0501 0.666992 15.333 3.94991 15.333 8C15.333 8.7299 14.913 9.20441 14.418 9.49121C13.9608 9.756 13.3798 9.90129 12.8652 10.0127C12.3085 10.1332 11.8121 10.2178 11.3555 10.3506C10.8933 10.485 10.628 10.6299 10.499 10.7754C10.3085 10.9905 10.1861 11.2978 10.1064 11.7168C10.0234 12.1537 10.0055 12.5802 9.9502 13.0889C9.90117 13.54 9.81867 14.0939 9.54492 14.5352C9.39803 14.7718 9.19348 14.9822 8.91504 15.1279C8.64028 15.2717 8.3308 15.333 8 15.333C3.94991 15.333 0.666992 12.0501 0.666992 8C0.666992 3.94991 3.94991 0.666992 8 0.666992ZM8 2C4.68629 2 2 4.68629 2 8C2 11.3137 4.68629 14 8 14C8.16539 14 8.25268 13.9694 8.29688 13.9463C8.33717 13.9252 8.37389 13.8936 8.41211 13.832C8.50875 13.6763 8.57406 13.4049 8.62402 12.9453C8.66771 12.5433 8.70095 11.9724 8.79688 11.4678C8.89627 10.9451 9.081 10.3658 9.50098 9.8916C9.89306 9.44902 10.4719 9.21881 10.9824 9.07031C11.4982 8.9203 12.1037 8.81374 12.583 8.70996C13.1046 8.59702 13.495 8.48558 13.75 8.33789C13.9671 8.2121 14 8.11768 14 8C14 4.68629 11.3137 2 8 2ZM5.66699 8.66699C6.58722 8.66717 7.33283 9.41278 7.33301 10.333C7.33301 11.2534 6.58733 11.9998 5.66699 12C4.7465 12 4 11.2535 4 10.333C4.00018 9.41267 4.74661 8.66699 5.66699 8.66699ZM5.66699 10C5.48299 10 5.33318 10.149 5.33301 10.333C5.33301 10.5171 5.48288 10.667 5.66699 10.667C5.85095 10.6668 6 10.517 6 10.333C5.99982 10.1492 5.85084 10.0002 5.66699 10ZM5.33301 4.33301C6.2535 4.33301 7 5.07951 7 6C7 6.92049 6.2535 7.66699 5.33301 7.66699C4.41267 7.66682 3.66699 6.92038 3.66699 6C3.66699 5.07962 4.41267 4.33318 5.33301 4.33301ZM5.33301 5.66699C5.14905 5.66717 5 5.816 5 6C5 6.184 5.14905 6.33283 5.33301 6.33301C5.51712 6.33301 5.66699 6.18411 5.66699 6C5.66699 5.81589 5.51712 5.66699 5.33301 5.66699ZM9.33301 3C10.2535 3 11 3.7465 11 4.66699C10.9998 5.58733 10.2534 6.33301 9.33301 6.33301C8.41278 6.33283 7.66717 5.58722 7.66699 4.66699C7.66699 3.74661 8.41267 3.00018 9.33301 3ZM9.33301 4.33301C9.14905 4.33318 9 4.48299 9 4.66699C9.00018 4.85084 9.14916 4.99982 9.33301 5C9.51701 5 9.66682 4.85095 9.66699 4.66699C9.66699 4.48288 9.51712 4.33301 9.33301 4.33301Z" fill="#767693"/>
</g>
<defs>
<clipPath id="clip0_711_23624">
<rect width="16" height="16" fill="white"/>
</clipPath>
</defs>
</svg>
