<svg width="48" height="48" viewBox="0 0 48 48" fill="none" xmlns="http://www.w3.org/2000/svg">
<path d="M24 2C30.6274 2 36 7.37257 36 14C36 17.0739 34.8431 19.8768 32.9424 22H44C45.1046 22 46 22.8954 46 24C46 30.6274 40.6274 36 34 36C30.9259 36 28.1232 34.8424 26 32.9414V44C26 45.1046 25.1046 46 24 46C17.3726 46 12 40.6274 12 34C12 30.9261 13.1569 28.1232 15.0576 26H4C2.89543 26 2 25.1046 2 24C2 17.3726 7.37257 12 14 12C17.0739 12 19.8768 13.1569 22 15.0576V4C22 2.89543 22.8954 2 24 2ZM22 26.252C18.5496 27.14 16 30.2724 16 34C16 37.7276 18.5497 40.8589 22 41.7471V26.252ZM26.252 26C27.14 29.4504 30.2724 32 34 32C37.7276 32 40.86 29.4504 41.748 26H26.252ZM14 16C10.2723 16 7.14004 18.5496 6.25195 22H21.748C20.86 18.5496 17.7276 16 14 16ZM26 21.7471C29.4503 20.8589 32 17.7276 32 14C32 10.2723 29.4504 7.14004 26 6.25195V21.7471Z" fill="#737A87"/>
</svg>
