<svg width="124" height="22" viewBox="0 0 124 22" fill="none" xmlns="http://www.w3.org/2000/svg">
<mask id="path-1-inside-1_6571_154081" fill="white">
<path d="M0 4C0 1.79086 1.79086 0 4 0H120C122.209 0 124 1.79086 124 4V18C124 20.2091 122.209 22 120 22H4C1.79086 22 0 20.2091 0 18V4Z"/>
</mask>
<path d="M0 4C0 1.79086 1.79086 0 4 0H120C122.209 0 124 1.79086 124 4V18C124 20.2091 122.209 22 120 22H4C1.79086 22 0 20.2091 0 18V4Z" fill="#F1F3F5"/>
<path d="M4 0V1H120V0V-1H4V0ZM124 4H123V18H124H125V4H124ZM120 22V21H4V22V23H120V22ZM0 18H1V4H0H-1V18H0ZM4 22V21C2.34315 21 1 19.6569 1 18H0H-1C-1 20.7614 1.23858 23 4 23V22ZM124 18H123C123 19.6569 121.657 21 120 21V22V23C122.761 23 125 20.7614 125 18H124ZM120 0V1C121.657 1 123 2.34315 123 4H124H125C125 1.23858 122.761 -1 120 -1V0ZM4 0V-1C1.23858 -1 -1 1.23858 -1 4H0H1C1 2.34315 2.34315 1 4 1V0Z" fill="#737A87" fill-opacity="0.2" mask="url(#path-1-inside-1_6571_154081)"/>
<path d="M10.512 5.388C11.34 6.012 12.036 6.636 12.6 7.26L11.988 7.86C11.484 7.26 10.8 6.624 9.924 5.952L10.512 5.388ZM17.532 15.984C16.872 15.984 16.152 15.972 15.384 15.96C14.604 15.948 13.968 15.876 13.488 15.744C13.008 15.6 12.576 15.3 12.204 14.868C12.036 14.664 11.88 14.568 11.736 14.568C11.448 14.568 10.968 15.12 10.308 16.224L9.66 15.636C10.296 14.628 10.86 14.016 11.352 13.8V10.152H9.648V9.36H12.156V13.848C12.252 13.92 12.348 14.004 12.456 14.124C12.744 14.472 13.056 14.724 13.392 14.88C13.776 15.048 14.316 15.144 15.036 15.168C15.672 15.18 16.464 15.192 17.412 15.192C17.964 15.192 18.54 15.18 19.128 15.168C19.704 15.156 20.148 15.144 20.46 15.12L20.256 15.984H17.532ZM15.384 6.54C15.888 6.84 16.356 7.14 16.764 7.44C17.388 7.116 17.964 6.756 18.492 6.348H13.164V5.616H19.656V6.24C18.936 6.864 18.156 7.404 17.316 7.86L17.508 8.016H19.884V13.38C19.884 13.992 19.548 14.304 18.876 14.304H17.88L17.688 13.572L18.636 13.608C18.924 13.608 19.068 13.464 19.068 13.2V12.3H17.052V14.364H16.248V12.3H14.244V14.4H13.428V8.016H16.428C15.972 7.692 15.444 7.368 14.856 7.056L15.384 6.54ZM14.244 10.536V11.592H16.248V10.536H14.244ZM17.052 10.536V11.592H19.068V10.536H17.052ZM19.068 9.816V8.736H17.052V9.816H19.068ZM16.248 9.816V8.736H14.244V9.816H16.248ZM23.123 9.48C22.763 10.008 22.367 10.524 21.935 11.004L21.659 10.08C22.835 8.628 23.687 6.96 24.227 5.088L25.031 5.46C24.743 6.384 24.395 7.248 23.975 8.064V16.224H23.123V9.48ZM24.983 6.78H28.679C28.499 6.3 28.295 5.844 28.055 5.388L28.883 5.16C29.135 5.688 29.327 6.168 29.471 6.612L29.015 6.78H32.795V7.596H24.983V6.78ZM26.087 8.568H31.763V9.348H26.087V8.568ZM26.087 10.26H31.763V11.052H26.087V10.26ZM31.979 12.036V16.2H31.139V15.552H26.699V16.2H25.859V12.036H31.979ZM26.699 14.736H31.139V12.84H26.699V14.736ZM35.962 10.236V12.036H38.914V10.236H35.962ZM38.914 12.84H35.962V13.86H35.098V6.864H38.914V5.22H39.79V6.864H43.678V12.84H39.79V14.316C39.79 14.904 40.054 15.204 40.582 15.204H43.318C43.618 15.204 43.834 15.132 43.978 15C44.098 14.856 44.182 14.388 44.23 13.572L45.046 13.848C44.974 14.868 44.842 15.492 44.626 15.708C44.41 15.912 44.026 16.02 43.462 16.02H40.378C39.394 16.02 38.914 15.492 38.914 14.448V12.84ZM39.79 12.036H42.826V10.236H39.79V12.036ZM42.826 9.444V7.68H39.79V9.444H42.826ZM38.914 7.68H35.962V9.444H38.914V7.68ZM46.581 10.356H51.633V8.652C52.665 8.064 53.649 7.356 54.585 6.54H47.841V5.724H55.761V6.54C54.813 7.44 53.733 8.292 52.509 9.096V10.356H57.069V11.196H52.509V15.036C52.509 15.756 52.137 16.116 51.405 16.116H49.353L49.125 15.276C49.725 15.3 50.361 15.312 51.057 15.312C51.441 15.312 51.633 15.12 51.633 14.76V11.196H46.581V10.356ZM58.7 11.484H64.76V12.3H58.7V11.484ZM66.3366 5.748H76.9446V6.6H73.7046V8.472H76.3686V14.892C76.3686 15.684 76.0206 16.092 75.3246 16.092H74.0886L73.8726 15.252L75.0486 15.288C75.3606 15.288 75.5166 15.084 75.5166 14.7V9.3H73.6686C73.6446 9.636 73.6206 9.96 73.5846 10.272C74.1366 11.112 74.7006 12.06 75.2646 13.092L74.7366 13.884C74.2326 12.732 73.8006 11.832 73.4406 11.184C73.1526 12.576 72.6246 13.668 71.8806 14.46L71.2446 13.896C72.2046 12.888 72.7446 11.364 72.8646 9.3H70.3326C70.2966 9.708 70.2486 10.104 70.2006 10.476C70.6566 11.076 71.1246 11.748 71.5926 12.492L71.1006 13.224C70.6806 12.396 70.3326 11.748 70.0446 11.28C69.7566 12.492 69.2766 13.452 68.6166 14.172L67.9686 13.608C68.8566 12.66 69.3846 11.22 69.5286 9.3H67.7646V16.152H66.9126V8.472H69.5646V6.6H66.3366V5.748ZM70.3686 8.472H72.8886V6.6H70.3686V8.472ZM80.3276 10.236V12.036H83.2796V10.236H80.3276ZM83.2796 12.84H80.3276V13.86H79.4636V6.864H83.2796V5.22H84.1556V6.864H88.0436V12.84H84.1556V14.316C84.1556 14.904 84.4196 15.204 84.9476 15.204H87.6836C87.9836 15.204 88.1996 15.132 88.3436 15C88.4636 14.856 88.5476 14.388 88.5956 13.572L89.4116 13.848C89.3396 14.868 89.2076 15.492 88.9916 15.708C88.7756 15.912 88.3916 16.02 87.8276 16.02H84.7436C83.7596 16.02 83.2796 15.492 83.2796 14.448V12.84ZM84.1556 12.036H87.1916V10.236H84.1556V12.036ZM87.1916 9.444V7.68H84.1556V9.444H87.1916ZM83.2796 7.68H80.3276V9.444H83.2796V7.68ZM90.7906 10.164H101.579V11.028H90.7906V10.164ZM108.694 6.888V15.672H107.878V14.916H104.23V15.672H103.414V6.888H105.634V5.148H106.474V6.888H108.694ZM104.23 14.136H105.634V11.196H104.23V14.136ZM106.474 14.136H107.878V11.196H106.474V14.136ZM104.23 10.428H105.634V7.68H104.23V10.428ZM106.474 7.68V10.428H107.878V7.68H106.474ZM109.702 5.844H113.542V6.48C113.182 7.74 112.798 8.904 112.378 9.972C113.206 11.172 113.626 12.156 113.638 12.924C113.638 13.548 113.482 13.98 113.194 14.232C112.882 14.484 112.258 14.616 111.322 14.616L111.07 13.74C111.382 13.776 111.646 13.8 111.862 13.8C112.27 13.776 112.534 13.716 112.654 13.596C112.762 13.476 112.822 13.26 112.834 12.924C112.822 12.18 112.378 11.196 111.514 9.972C111.898 9.024 112.282 7.908 112.654 6.624H110.53V16.212H109.702V5.844Z" fill="#737A87"/>
</svg>
